<svg width="22" height="22" viewBox="0 0 22 22" fill="none" xmlns="http://www.w3.org/2000/svg">
<mask id="mask0_1_123" style="mask-type:alpha" maskUnits="userSpaceOnUse" x="0" y="0" width="22" height="22">
<ellipse cx="11.0389" cy="10.8215" rx="10.6329" ry="10.4642" fill="#C4C4C4"/>
</mask>
<g mask="url(#mask0_1_123)">
<g clip-path="url(#clip0_1_123)">
<path d="M-11.3158 0.321533H33.3937V21.3215H-11.3158V0.321533Z" fill="#012169"/>
<path d="M-11.3158 0.321533V2.66933L28.3952 21.3215H33.3937V18.9737L-6.31727 0.325733H-11.3158V0.321533ZM33.3937 0.321533V2.66933L-6.31727 21.3215H-11.3158V18.9737L28.3952 0.321533H33.3937Z" fill="white"/>
<path d="M7.31465 0.321533V21.3215H14.7633V0.321533H7.31465ZM-11.3158 7.32293V14.3201H33.3937V7.32293H-11.3158Z" fill="white"/>
<path d="M-11.3158 8.72153V12.9215H33.3937V8.72153H-11.3158ZM8.80348 0.321533V21.3215H13.2744V0.321533H8.80348ZM-11.3158 21.3215L3.58588 14.3201H6.92568L-7.98494 21.3215H-11.3158ZM-11.3158 0.321533L3.58588 7.32293H0.255024L-11.3158 1.88813V0.321533ZM15.1567 7.32293L30.0629 0.321533H33.3937L18.492 7.32293H15.1522H15.1567ZM33.3982 21.3215L18.4876 14.3201H21.8184L33.3937 19.7549V21.3215H33.3982Z" fill="#C8102E"/>
</g>
</g>
<defs>
<clipPath id="clip0_1_123">
<rect width="22.3548" height="21" fill="white" transform="translate(-0.138428 0.321533)"/>
</clipPath>
</defs>
</svg>
