<svg width="20" height="20" viewBox="0 0 20 20" fill="none" xmlns="http://www.w3.org/2000/svg">
<g clip-path="url(#clip0_1_622)">
<path d="M17.7778 2.77783H2.22222C1.63285 2.77783 1.06762 3.01196 0.650874 3.42871C0.234126 3.84545 0 4.41068 0 5.00005L0 15.0001C0 15.5894 0.234126 16.1547 0.650874 16.5714C1.06762 16.9881 1.63285 17.2223 2.22222 17.2223H17.7778C18.3671 17.2223 18.9324 16.9881 19.3491 16.5714C19.7659 16.1547 20 15.5894 20 15.0001V5.00005C20 4.41068 19.7659 3.84545 19.3491 3.42871C18.9324 3.01196 18.3671 2.77783 17.7778 2.77783Z" fill="#003399"/>
<path d="M10.2994 5.39161L10.7711 5.04883H10.1883L10.0078 4.49438L9.82777 5.04883H9.24499L9.71666 5.39161L9.53611 5.94605L10.0078 5.60327L10.4794 5.94605L10.2994 5.39161ZM10.2994 15.0211L10.7711 14.6783H10.1883L10.0078 14.1238L9.82777 14.6783H9.24499L9.71666 15.0211L9.53611 15.5755L10.0078 15.2327L10.4794 15.5755L10.2994 15.0211ZM5.48499 10.2061L5.95666 9.86327H5.37333L5.19333 9.30883L5.01277 9.86327H4.42999L4.90166 10.2061L4.72166 10.7605L5.19333 10.4177L5.66499 10.7605L5.48499 10.2061ZM6.09999 7.8255L6.57166 7.48272H5.98833L5.80833 6.92827L5.62833 7.48272H5.04499L5.51666 7.8255L5.33666 8.37994L5.80833 8.03716L6.27999 8.37994L6.09999 7.8255ZM6.09999 12.6138L6.57166 12.2711H5.98833L5.80833 11.7166L5.62833 12.2711H5.04499L5.51666 12.6138L5.33666 13.1683L5.80833 12.8255L6.27999 13.1683L6.09999 12.6138ZM7.89222 6.03661L8.36388 5.69383H7.78055L7.60055 5.13938L7.42055 5.69383H6.83722L7.30888 6.03661L7.12888 6.59105L7.60055 6.24827L8.07222 6.59105L7.89222 6.03661ZM7.89222 14.4072L8.36388 14.0644H7.78055L7.60055 13.5099L7.42055 14.0644H6.83722L7.30888 14.4072L7.12888 14.9616L7.60055 14.6194L8.07222 14.9616L7.89222 14.4072ZM14.515 10.2061L14.0433 9.86327H14.6267L14.8067 9.30883L14.9872 9.86327H15.57L15.0983 10.2061L15.2783 10.7605L14.8067 10.4177L14.335 10.7605L14.515 10.2061ZM13.9 7.8255L13.4283 7.48272H14.0117L14.1917 6.92827L14.3717 7.48272H14.955L14.4833 7.8255L14.6633 8.37994L14.1917 8.03716L13.72 8.37994L13.9 7.8255ZM13.9 12.6138L13.4283 12.2711H14.0117L14.1917 11.7166L14.3717 12.2711H14.955L14.4833 12.6138L14.6633 13.1683L14.1917 12.8255L13.72 13.1683L13.9 12.6138ZM12.1078 6.03661L11.6361 5.69383H12.2194L12.3994 5.13938L12.5794 5.69383H13.1628L12.6911 6.03661L12.8711 6.59105L12.3994 6.24827L11.9278 6.59105L12.1078 6.03661ZM12.1078 14.4072L11.6361 14.0644H12.2194L12.3994 13.5099L12.5794 14.0644H13.1628L12.6911 14.4072L12.8711 14.9616L12.3994 14.6194L11.9278 14.9616L12.1078 14.4072Z" fill="#FFCC00"/>
</g>
<defs>
<clipPath id="clip0_1_622">
<rect width="20" height="20" fill="white"/>
</clipPath>
</defs>
</svg>
