<svg width="22" height="20" viewBox="0 0 22 20" fill="none" xmlns="http://www.w3.org/2000/svg">
<g clip-path="url(#clip0_1_610)">
<path d="M6.19751 3.4375H16.6913V17.1875H6.19751V3.4375Z" fill="#E6E7E8"/>
<path d="M4.22994 3.4375C2.05674 3.4375 0.950623 4.97656 0.950623 6.875V13.75C0.950623 15.6484 2.05674 17.1875 4.22994 17.1875H6.19754V3.4375H4.22994Z" fill="#EC1C24"/>
<path d="M18.6589 3.4375H16.6913V17.1875H18.6589C20.8321 17.1875 21.9383 15.6484 21.9383 13.75V6.875C21.9383 4.97656 20.8321 3.4375 18.6589 3.4375Z" fill="#EC1C24"/>
<path fill-rule="evenodd" clip-rule="evenodd" d="M15.4649 10.2003C15.315 10.1356 15.2898 10.09 15.3344 9.93217C15.4455 9.53749 15.56 9.14436 15.6725 8.7503C15.682 8.71811 15.6905 8.68499 15.7033 8.6378C15.5642 8.66436 15.4344 8.68811 15.3045 8.71499C15.0418 8.76811 14.7808 8.82217 14.5188 8.87498C14.3476 8.90905 14.2692 8.86342 14.2207 8.70217C14.1751 8.54967 14.1302 8.39686 14.0571 8.22249C14.0403 8.24874 14.0282 8.27905 14.0069 8.30123C13.7068 8.62405 13.4051 8.94592 13.1031 9.26873C13.0096 9.36686 12.9057 9.40967 12.8322 9.37092C12.7243 9.3128 12.7283 9.20999 12.746 9.11405C12.8257 8.69499 12.9083 8.27686 12.9903 7.8578C13.0503 7.55374 13.1103 7.25124 13.172 6.93436C13.1408 6.94561 13.1198 6.95124 13.1011 6.95999C12.9313 7.04374 12.7634 7.12905 12.5932 7.21092C12.3846 7.31061 12.2797 7.2778 12.1708 7.08561C11.9403 6.67842 11.7117 6.27061 11.4818 5.86311C11.47 5.84311 11.4621 5.82311 11.4441 5.79749L11.4064 5.86311C11.1772 6.27061 10.9483 6.67842 10.7181 7.08561C10.6089 7.2778 10.5036 7.31092 10.295 7.21092C10.1248 7.12905 9.95693 7.04374 9.78706 6.95999C9.76836 6.95124 9.74738 6.94561 9.71622 6.93436C9.77788 7.25124 9.83789 7.55374 9.8979 7.8578C9.97988 8.27561 10.0628 8.69374 10.1419 9.11405C10.1602 9.2103 10.1639 9.31311 10.056 9.37092C9.98218 9.40967 9.87855 9.36686 9.78542 9.26873C9.48306 8.94592 9.18137 8.62405 8.88131 8.30123C8.85999 8.27905 8.84753 8.24874 8.83114 8.22249C8.75801 8.39717 8.71308 8.54967 8.6675 8.70217C8.61896 8.86342 8.53993 8.90905 8.36941 8.87498C8.10739 8.82217 7.84603 8.76811 7.58368 8.71499C7.45382 8.68811 7.32396 8.66436 7.18492 8.6378C7.1977 8.68499 7.2059 8.71842 7.21574 8.7503C7.32822 9.14436 7.44267 9.5378 7.55384 9.93217C7.59844 10.0903 7.57319 10.1356 7.42332 10.2003C7.28461 10.2603 7.14622 10.3237 6.99963 10.389C7.02587 10.4115 7.04063 10.425 7.05702 10.4378C7.40594 10.7084 7.75486 10.9781 8.10444 11.2487C8.44254 11.5106 8.77932 11.7722 9.11775 12.0331C9.23613 12.124 9.27516 12.2347 9.22629 12.3728C9.19875 12.454 9.17415 12.5353 9.14857 12.6169C9.11775 12.7128 9.08758 12.8094 9.05347 12.919C9.38895 12.8737 9.70573 12.8315 10.0248 12.7894C10.399 12.7403 10.7728 12.69 11.148 12.645C11.2765 12.629 11.372 12.7225 11.3667 12.844C11.3385 13.4887 11.2732 14.2165 11.2687 14.8272H11.6195C11.615 14.2165 11.55 13.489 11.5218 12.844C11.5159 12.7225 11.6117 12.629 11.7402 12.645C12.1154 12.69 12.4892 12.7403 12.8634 12.7894C13.1825 12.8315 13.4992 12.874 13.8347 12.919C13.8006 12.8094 13.7704 12.7128 13.7396 12.6169C13.714 12.535 13.6895 12.454 13.6619 12.3728C13.613 12.2347 13.6521 12.124 13.7704 12.0331C14.1092 11.7722 14.4457 11.5106 14.7838 11.2487C15.1333 10.9784 15.4823 10.7084 15.8312 10.4378C15.8476 10.425 15.8623 10.4115 15.8886 10.389C15.7416 10.3234 15.6039 10.2603 15.4649 10.2003Z" fill="#EC1C24"/>
</g>
<defs>
<clipPath id="clip0_1_610">
<rect width="20.9877" height="20" fill="white" transform="translate(0.950623)"/>
</clipPath>
</defs>
</svg>
