<svg width="22" height="20" viewBox="0 0 22 20" fill="none" xmlns="http://www.w3.org/2000/svg">
<g clip-path="url(#clip0_1_531)">
<path d="M8.71143 5.55005V6.6063H21.1614C21.144 6.26567 21.1066 5.83505 20.9728 5.55005" fill="#EC1C24"/>
<path d="M20.3858 4.49377H8.71143V5.55002H20.9728C20.8397 5.15596 20.6416 4.79659 20.3858 4.49377Z" fill="#E6E7E8"/>
<path d="M17.8935 3.4375H8.71143V4.49375H20.3858C19.8385 3.84063 18.9377 3.4375 17.8935 3.4375Z" fill="#EC1C24"/>
<path d="M21.1614 6.6062H8.71143V7.66245H21.1728V6.95839C21.1728 6.89558 21.1686 6.83433 21.1666 6.77276C21.1653 6.75589 21.1633 6.71245 21.1614 6.6062Z" fill="#E6E7E8"/>
<path d="M8.71143 8.71873H21.1728V7.66248H8.71143V8.71873Z" fill="#EC1C24"/>
<path d="M8.71143 9.775H21.1728V8.71875H8.71143V9.775Z" fill="#E6E7E8"/>
<path d="M8.71143 9.77502H21.1728V10.8313H8.71143V9.77502Z" fill="#EC1C24"/>
<path d="M0.185181 10.8313V11.8875H21.1728V10.8313H8.71142H0.185181Z" fill="#E6E7E8"/>
<path d="M0.185181 11.8875H21.1728V12.9437H0.185181V11.8875Z" fill="#EC1C24"/>
<path d="M0.18682 13.5934C0.18682 13.5934 0.183869 13.8494 0.191739 14H21.1663C21.1755 13.8456 21.1712 13.5934 21.1712 13.5934L21.1728 12.9437H0.185181L0.18682 13.5934Z" fill="#E6E7E8"/>
<path d="M3.46446 17.1875H17.8935C18.9406 17.1875 19.8109 16.825 20.4054 16.1125H0.949219C1.56311 16.8407 2.44984 17.1875 3.46282 17.1875" fill="#EC1C24"/>
<path d="M0.950867 16.1125H20.4071C20.6665 15.7985 20.8602 15.4399 20.9777 15.0563H0.383545C0.503272 15.4388 0.696167 15.7969 0.952507 16.1125" fill="#E6E7E8"/>
<path d="M0.381851 15.0562H20.976C21.0834 14.7127 21.1472 14.3581 21.1662 14H0.19165C0.224116 14.3612 0.254285 14.6341 0.381851 15.0562Z" fill="#EC1C24"/>
<path d="M8.71142 3.4375H3.4645C1.2913 3.4375 0.185181 4.97656 0.185181 6.875V10.8313H8.71142V3.4375Z" fill="#176496"/>
<path d="M1.10269 5.30499L1.28108 5.17437L1.45915 5.30499L1.38995 5.09499L1.56737 4.96655H1.34831L1.28043 4.75562L1.21287 4.96655H0.994141L1.17221 5.09499L1.10269 5.30499Z" fill="white"/>
<path d="M2.28136 5.30499L2.45975 5.17437L2.63782 5.30499L2.56896 5.09499L2.74604 4.96655H2.52731L2.45943 4.75562L2.39187 4.96655H2.17249L2.35055 5.09499L2.28136 5.30499Z" fill="white"/>
<path d="M3.5816 5.30499L3.75967 5.17437L3.93806 5.30499L3.86887 5.09499L4.04595 4.96655H3.82853L3.75967 4.75562L3.69178 4.96655H3.47437L3.65046 5.09499L3.5816 5.30499Z" fill="white"/>
<path d="M4.87234 5.30499L5.05041 5.17437L5.2288 5.30499L5.15994 5.09499L5.33702 4.96655H5.1173L5.05041 4.75562L4.98285 4.96655H4.76379L4.94153 5.09499L4.87234 5.30499Z" fill="white"/>
<path d="M6.16767 5.30499L6.34606 5.17437L6.52413 5.30499L6.45526 5.09499L6.63267 4.96655H6.41329L6.34573 4.75562L6.27818 4.96655H6.05945L6.23653 5.09499L6.16767 5.30499Z" fill="white"/>
<path d="M1.73013 5.85344L1.90819 5.72312L2.08626 5.85344L2.01772 5.64375L2.19481 5.51531H1.97575L1.90787 5.30469L1.8413 5.51531H1.62158L1.79899 5.64375L1.73013 5.85344Z" fill="white"/>
<path d="M2.90896 5.85344L3.08703 5.72312L3.26509 5.85344L3.19623 5.64375L3.37331 5.51531H3.15294L3.08703 5.30469L3.01915 5.51531H2.80042L2.97783 5.64375L2.90896 5.85344Z" fill="white"/>
<path d="M4.20918 5.85344L4.38692 5.72312L4.56498 5.85344L4.49612 5.64375L4.67353 5.51531H4.4548L4.38692 5.30469L4.31903 5.51531H4.09998L4.27739 5.64375L4.20918 5.85344Z" fill="white"/>
<path d="M5.49933 5.85344L5.67773 5.72312L5.85612 5.85344L5.78627 5.64375L5.96401 5.51531H5.74528L5.6774 5.30469L5.61017 5.51531H5.39111L5.56852 5.64375L5.49933 5.85344Z" fill="white"/>
<path d="M6.79626 5.85344L6.97301 5.72312L7.15108 5.85344L7.08156 5.64375L7.2593 5.51531H7.0409L6.97269 5.30469L6.90546 5.51531H6.6864L6.86381 5.64375L6.79626 5.85344Z" fill="white"/>
<path d="M7.52665 5.30499L7.70472 5.17437L7.88311 5.30499L7.81392 5.09499L7.991 4.96655H7.77358L7.70439 4.75562L7.63684 4.96655H7.41614L7.59552 5.09499L7.52665 5.30499Z" fill="white"/>
<path d="M1.08535 9.69373L1.26375 9.56466L1.44181 9.69373L1.37295 9.4856L1.55003 9.35685L1.3313 9.35748L1.26309 9.14685L1.19619 9.35748L0.976807 9.35685L1.15422 9.4856L1.08535 9.69373Z" fill="white"/>
<path d="M2.26422 9.69373L2.44229 9.56466L2.62069 9.69373L2.55149 9.4856L2.72857 9.35685L2.51017 9.35748L2.44196 9.14685L2.37474 9.35748L2.15601 9.35685L2.33309 9.4856L2.26422 9.69373Z" fill="white"/>
<path d="M3.56448 9.69373L3.74255 9.56466L3.92094 9.69373L3.85175 9.4856L4.02883 9.35685L3.80879 9.35748L3.74222 9.14685L3.67466 9.35748L3.45593 9.35685L3.63334 9.4856L3.56448 9.69373Z" fill="white"/>
<path d="M4.85525 9.69373L5.03332 9.56466L5.21138 9.69373L5.1435 9.4856L5.3196 9.35685L5.10054 9.35748L5.03299 9.14685L4.96543 9.35748L4.7467 9.35685L4.92379 9.4856L4.85525 9.69373Z" fill="white"/>
<path d="M6.15021 9.69373L6.3286 9.56466L6.507 9.69373L6.43879 9.4856L6.61489 9.35685L6.39616 9.35748L6.32828 9.14685L6.26105 9.35748L6.04199 9.35685L6.21908 9.4856L6.15021 9.69373Z" fill="white"/>
<path d="M7.50919 9.69373L7.68725 9.56466L7.86565 9.69373L7.79646 9.4856L7.97387 9.35685L7.75382 9.35748L7.68693 9.14685L7.61937 9.35748L7.39966 9.35685L7.57805 9.4856L7.50919 9.69373Z" fill="white"/>
<path d="M1.10269 6.40246L1.28108 6.27183L1.45915 6.40246L1.38995 6.19246L1.56737 6.06402L1.34831 6.06464L1.28043 5.85339L1.21287 6.06464L0.994141 6.06402L1.17221 6.19246L1.10269 6.40246Z" fill="white"/>
<path d="M2.28136 6.40246L2.45975 6.27183L2.63782 6.40246L2.56896 6.19246L2.74604 6.06402L2.52731 6.06464L2.45943 5.85339L2.39187 6.06464L2.17249 6.06402L2.35055 6.19246L2.28136 6.40246Z" fill="white"/>
<path d="M3.5816 6.40246L3.75967 6.27183L3.93806 6.40246L3.86887 6.19246L4.04595 6.06402L3.82853 6.06464L3.75967 5.85339L3.69178 6.06464L3.47437 6.06402L3.65046 6.19246L3.5816 6.40246Z" fill="white"/>
<path d="M4.87234 6.40246L5.05041 6.27183L5.2288 6.40246L5.15994 6.19246L5.33702 6.06402L5.1173 6.06464L5.05041 5.85339L4.98285 6.06464L4.76379 6.06402L4.94153 6.19246L4.87234 6.40246Z" fill="white"/>
<path d="M6.16767 6.40246L6.34606 6.27183L6.52413 6.40246L6.45526 6.19246L6.63267 6.06402L6.41329 6.06464L6.34573 5.85339L6.27818 6.06464L6.05945 6.06402L6.23653 6.19246L6.16767 6.40246Z" fill="white"/>
<path d="M1.73013 6.95122L1.90819 6.8209L2.08626 6.95122L2.01772 6.74153L2.19481 6.61247H1.97575L1.90787 6.40247L1.8413 6.61247H1.62158L1.79899 6.74153L1.73013 6.95122Z" fill="white"/>
<path d="M2.90896 6.95122L3.08703 6.8209L3.26509 6.95122L3.19623 6.74153L3.37331 6.61247H3.15294L3.08703 6.40247L3.01915 6.61247H2.80042L2.97783 6.74153L2.90896 6.95122Z" fill="white"/>
<path d="M4.20918 6.95122L4.38692 6.8209L4.56498 6.95122L4.49612 6.74153L4.67353 6.61247H4.4548L4.38692 6.40247L4.31903 6.61247H4.09998L4.27739 6.74153L4.20918 6.95122Z" fill="white"/>
<path d="M5.49933 6.95122L5.67773 6.8209L5.85612 6.95122L5.78627 6.74153L5.96401 6.61247H5.74528L5.6774 6.40247L5.61017 6.61247H5.39111L5.56852 6.74153L5.49933 6.95122Z" fill="white"/>
<path d="M6.79626 6.95122L6.97301 6.8209L7.15108 6.95122L7.08156 6.74153L7.2593 6.61247H7.0409L6.97269 6.40247L6.90546 6.61247H6.6864L6.86381 6.74153L6.79626 6.95122Z" fill="white"/>
<path d="M7.52665 6.40246L7.70472 6.27183L7.88311 6.40246L7.81392 6.19246L7.991 6.06402L7.77358 6.06464L7.70439 5.85339L7.63684 6.06464L7.41614 6.06402L7.59552 6.19246L7.52665 6.40246Z" fill="white"/>
<path d="M1.08535 7.50004L1.26375 7.36973L1.44181 7.50004L1.37262 7.29067L1.55003 7.16192L1.33097 7.16254L1.26309 6.95129L1.19619 7.16254L0.976807 7.16192L1.15422 7.29067L1.08535 7.50004Z" fill="white"/>
<path d="M2.26422 7.50004L2.44229 7.36973L2.62069 7.50004L2.55149 7.29067L2.72857 7.16192L2.51017 7.16254L2.44196 6.95129L2.37474 7.16254L2.15601 7.16192L2.33276 7.29067L2.26422 7.50004Z" fill="white"/>
<path d="M3.56448 7.50004L3.74255 7.36973L3.92061 7.50004L3.85175 7.29067L4.02883 7.16192L3.80879 7.16254L3.74222 6.95129L3.67466 7.16254L3.45593 7.16192L3.63334 7.29067L3.56448 7.50004Z" fill="white"/>
<path d="M4.85525 7.50004L5.03299 7.36973L5.21138 7.50004L5.1435 7.29067L5.3196 7.16192L5.10054 7.16254L5.03299 6.95129L4.96543 7.16254L4.7467 7.16192L4.92379 7.29067L4.85525 7.50004Z" fill="white"/>
<path d="M6.15021 7.50004L6.3286 7.36973L6.50667 7.50004L6.43879 7.29067L6.61489 7.16192L6.39583 7.16254L6.32828 6.95129L6.26105 7.16254L6.04199 7.16192L6.21908 7.29067L6.15021 7.50004Z" fill="white"/>
<path d="M1.71267 8.04875L1.89074 7.91875L2.06881 8.04875L2.00027 7.84062L2.17702 7.71125H1.95796L1.89041 7.5L1.82318 7.71125H1.60413L1.78154 7.84062L1.71267 8.04875Z" fill="white"/>
<path d="M2.89159 8.04875L3.06966 7.91875L3.24772 8.04875L3.17886 7.84062L3.35594 7.71125H3.13655L3.06933 7.5L3.00177 7.71125H2.78271L2.96045 7.84062L2.89159 8.04875Z" fill="white"/>
<path d="M4.19221 8.04875L4.36962 7.91875L4.54801 8.04875L4.47784 7.84062L4.65623 7.71125H4.4375L4.36962 7.5L4.30207 7.71125H4.08301L4.26042 7.84062L4.19221 8.04875Z" fill="white"/>
<path d="M5.48134 8.04875L5.66039 7.91875L5.83879 8.04875L5.76992 7.84062L5.94668 7.71125H5.72795L5.66006 7.5L5.59284 7.71125H5.37378L5.55119 7.84062L5.48134 8.04875Z" fill="white"/>
<path d="M6.77663 8.04875L6.95568 7.91875L7.13408 8.04875L7.06488 7.84062L7.24262 7.71125H7.02389L6.95568 7.5L6.88813 7.71125H6.66907L6.84648 7.84062L6.77663 8.04875Z" fill="white"/>
<path d="M7.50919 7.50004L7.68725 7.36973L7.86532 7.50004L7.79646 7.29067L7.97387 7.16192L7.75382 7.16254L7.68693 6.95129L7.61937 7.16254L7.39966 7.16192L7.57805 7.29067L7.50919 7.50004Z" fill="white"/>
<path d="M1.08535 8.59777L1.26375 8.46871L1.44181 8.59777L1.37262 8.38808L1.55003 8.25933L1.33097 8.25996L1.26309 8.04871L1.19619 8.25996L0.976807 8.25933L1.15422 8.38808L1.08535 8.59777Z" fill="white"/>
<path d="M2.26422 8.59777L2.44229 8.46871L2.62069 8.59777L2.55149 8.38808L2.72857 8.25933L2.51017 8.25996L2.44196 8.04871L2.37474 8.25996L2.15601 8.25933L2.33276 8.38808L2.26422 8.59777Z" fill="white"/>
<path d="M3.56448 8.59777L3.74255 8.46871L3.92061 8.59777L3.85175 8.38808L4.02883 8.25933L3.80879 8.25996L3.74222 8.04871L3.67466 8.25996L3.45593 8.25933L3.63334 8.38808L3.56448 8.59777Z" fill="white"/>
<path d="M4.85525 8.59777L5.03299 8.46871L5.21138 8.59777L5.1435 8.38808L5.3196 8.25933L5.10054 8.25996L5.03299 8.04871L4.96543 8.25996L4.7467 8.25933L4.92379 8.38808L4.85525 8.59777Z" fill="white"/>
<path d="M6.15021 8.59777L6.3286 8.46871L6.50667 8.59777L6.43879 8.38808L6.61489 8.25933L6.39583 8.25996L6.32828 8.04871L6.26105 8.25996L6.04199 8.25933L6.21908 8.38808L6.15021 8.59777Z" fill="white"/>
<path d="M1.71267 9.14684L1.89074 9.01622L2.06881 9.14684L2.00027 8.93684L2.17702 8.80934H1.95796L1.89041 8.59778L1.82318 8.80934H1.60413L1.78154 8.93684L1.71267 9.14684Z" fill="white"/>
<path d="M2.89159 9.14684L3.06966 9.01622L3.24772 9.14684L3.17886 8.93684L3.35594 8.80934H3.13655L3.06933 8.59778L3.00177 8.80934H2.78271L2.96045 8.93684L2.89159 9.14684Z" fill="white"/>
<path d="M4.19221 9.14684L4.36962 9.01622L4.54801 9.14684L4.47784 8.93684L4.65623 8.80934H4.4375L4.36962 8.59778L4.30207 8.80934H4.08301L4.26042 8.93684L4.19221 9.14684Z" fill="white"/>
<path d="M5.48134 9.14684L5.66039 9.01622L5.83879 9.14684L5.76992 8.93684L5.94668 8.80934H5.72795L5.66006 8.59778L5.59284 8.80934H5.37378L5.55119 8.93684L5.48134 9.14684Z" fill="white"/>
<path d="M6.77663 9.14684L6.95568 9.01622L7.13408 9.14684L7.06488 8.93684L7.24262 8.80934H7.02389L6.95568 8.59778L6.88813 8.80934H6.66907L6.84648 8.93684L6.77663 9.14684Z" fill="white"/>
<path d="M7.50919 8.59777L7.68725 8.46871L7.86532 8.59777L7.79646 8.38808L7.97387 8.25933L7.75382 8.25996L7.68693 8.04871L7.61937 8.25996L7.39966 8.25933L7.57805 8.38808L7.50919 8.59777Z" fill="white"/>
</g>
<defs>
<clipPath id="clip0_1_531">
<rect width="20.9877" height="20" fill="white" transform="translate(0.185181)"/>
</clipPath>
</defs>
</svg>
