<svg width="75" height="49" viewBox="0 0 75 49" fill="none" xmlns="http://www.w3.org/2000/svg">
<path d="M36.3537 13.1138C36.4401 13.0404 36.5498 13.0001 36.6632 13H39.2938C39.4065 12.9999 39.5157 13.0395 39.602 13.112C39.6883 13.1845 39.7462 13.2851 39.7656 13.3961L40.2663 16.2582C40.8266 16.4234 41.3592 16.6466 41.861 16.9223L44.216 15.2288C44.3081 15.1624 44.4208 15.131 44.5339 15.1401C44.647 15.1491 44.7532 15.1981 44.8335 15.2783L46.6944 17.1381C46.774 17.2176 46.8229 17.3227 46.8326 17.4348C46.8424 17.5468 46.8123 17.6588 46.7477 17.7508L45.0699 20.1412C45.3421 20.6401 45.5618 21.1681 45.7257 21.7227L48.5992 22.1925C48.7111 22.2109 48.8128 22.2684 48.8862 22.3548C48.9596 22.4412 48.9999 22.5509 49 22.6642V25.2947C49.0002 25.4072 48.9606 25.5162 48.8884 25.6025C48.8161 25.6888 48.7157 25.7468 48.6048 25.7664L45.7266 26.2708C45.5638 26.826 45.3447 27.355 45.0727 27.8541L46.7738 30.2155C46.8402 30.3076 46.8716 30.4202 46.8625 30.5333C46.8535 30.6464 46.8045 30.7526 46.7243 30.833L44.8644 32.6946C44.7848 32.7741 44.6797 32.8231 44.5677 32.8328C44.4556 32.8426 44.3437 32.8125 44.2515 32.7479L41.8656 31.074C41.3641 31.3507 40.8318 31.5752 40.2729 31.7418L39.7656 34.6049C39.746 34.7157 39.688 34.8161 39.6017 34.8884C39.5154 34.9606 39.4064 35.0002 39.2938 35H36.6632C36.5499 35 36.4404 34.9598 36.354 34.8866C36.2676 34.8134 36.21 34.7119 36.1914 34.6002L35.7178 31.7484C35.1565 31.5842 34.6218 31.3631 34.1175 31.088L31.7475 32.7469C31.6554 32.8112 31.5436 32.8409 31.4317 32.831C31.3199 32.8211 31.215 32.7722 31.1356 32.6928L29.2757 30.832C29.1959 30.7519 29.147 30.6462 29.1378 30.5335C29.1285 30.4208 29.1595 30.3085 29.2252 30.2165L30.8993 27.8747C30.6211 27.3684 30.3981 26.8317 30.2323 26.268L27.3942 25.7655C27.2836 25.7457 27.1834 25.6876 27.1113 25.6013C27.0392 25.515 26.9998 25.4061 27 25.2937V22.6633C27 22.5502 27.04 22.4408 27.1131 22.3544C27.1861 22.2681 27.2874 22.2104 27.3989 22.1916L30.2351 21.7199C30.4018 21.1552 30.6262 20.6188 30.9039 20.1132L29.2504 17.748C29.1858 17.656 29.1558 17.544 29.1655 17.432C29.1752 17.3199 29.2242 17.2148 29.3037 17.1353L31.1646 15.2764C31.2447 15.1966 31.3505 15.1477 31.4632 15.1385C31.5759 15.1293 31.6882 15.1603 31.7802 15.226L34.1306 16.9046C34.6334 16.6311 35.1668 16.4115 35.7262 16.2488L36.1914 13.4007C36.2098 13.2889 36.2673 13.1872 36.3537 13.1138Z" stroke="#A6AAB4"/>
</svg>
