<svg width="16" height="16" viewBox="0 0 16 16" fill="none" xmlns="http://www.w3.org/2000/svg">
<g opacity="0.5">
<path d="M15.7753 14.6487L12.8091 11.7047C13.9605 10.2682 14.5181 8.44496 14.3672 6.60976C14.2164 4.77456 13.3685 3.06695 11.998 1.83804C10.6275 0.609125 8.83851 -0.0476716 6.9989 0.00269677C5.15928 0.0530651 3.40887 0.80677 2.10758 2.10883C0.806291 3.4109 0.0530336 5.16235 0.00269517 7.00306C-0.0476432 8.84377 0.608763 10.6338 1.83694 12.0051C3.06512 13.3765 4.77172 14.2248 6.60583 14.3758C8.43994 14.5267 10.2621 13.9688 11.6978 12.8167L14.64 15.7607C14.7143 15.8357 14.8028 15.8952 14.9002 15.9358C14.9976 15.9764 15.1021 15.9974 15.2077 15.9974C15.3132 15.9974 15.4177 15.9764 15.5152 15.9358C15.6126 15.8952 15.701 15.8357 15.7753 15.7607C15.9194 15.6115 16 15.4122 16 15.2047C16 14.9972 15.9194 14.7979 15.7753 14.6487ZM7.21243 12.8167C6.10552 12.8167 5.02346 12.4883 4.10309 11.8729C3.18272 11.2576 2.46538 10.383 2.04178 9.35975C1.61818 8.33648 1.50735 7.21051 1.7233 6.12421C1.93925 5.03792 2.47228 4.0401 3.25499 3.25692C4.0377 2.47375 5.03493 1.9404 6.12058 1.72432C7.20622 1.50825 8.33153 1.61914 9.35419 2.04299C10.3768 2.46685 11.2509 3.18461 11.8659 4.10553C12.4809 5.02644 12.8091 6.10914 12.8091 7.21672C12.8091 8.70193 12.2195 10.1263 11.1699 11.1765C10.1203 12.2267 8.69676 12.8167 7.21243 12.8167Z" fill="#243656"/>
</g>
</svg>
