<svg width="25" height="25" viewBox="0 0 25 25" fill="none" xmlns="http://www.w3.org/2000/svg">
<path d="M5.17034 5.20697L3.5727 4.85092C3.38264 4.80856 3.22792 4.85111 3.1543 4.96414C3.0909 5.06143 3.09326 5.1995 3.16105 5.35284L3.35412 5.78961C3.39785 5.87844 3.33505 5.99002 3.30272 6.01946C1.43819 7.71622 0.368774 10.1301 0.368774 12.6423C0.368774 15.6183 1.84276 18.3908 4.31183 20.0588C4.41522 20.1286 4.53565 20.1656 4.66002 20.1656C4.86752 20.1656 5.06059 20.063 5.17663 19.8913C5.24652 19.788 5.28343 19.6676 5.28343 19.5431C5.28343 19.3357 5.18089 19.1426 5.00912 19.0266C2.88347 17.5905 1.61442 15.2038 1.61442 12.6422C1.61442 10.6192 2.43851 8.63361 3.87539 7.19482C3.91263 7.15752 3.93256 7.15463 3.93774 7.15463C3.94731 7.15463 3.96121 7.16893 3.97131 7.1865L4.15107 7.59336C4.22621 7.76336 4.33444 7.85698 4.4558 7.85698C4.57472 7.85698 4.68329 7.76618 4.76137 7.60143L5.53852 5.96065C5.61444 5.80042 5.61759 5.63305 5.54737 5.48941C5.47736 5.34583 5.34342 5.24559 5.17034 5.20697Z" fill="#F1B808"/>
<path d="M24.6312 12.3576C24.6312 9.3816 23.1573 6.60913 20.6881 4.94115C20.5847 4.87133 20.4643 4.83435 20.3399 4.83435C20.1324 4.83435 19.9394 4.93682 19.8234 5.10859C19.7535 5.21204 19.7165 5.33241 19.7165 5.45678C19.7165 5.66428 19.8191 5.85735 19.9908 5.97333C22.1165 7.40936 23.3855 9.79608 23.3855 12.3577C23.3855 14.3808 22.5614 16.3663 21.1246 17.8051C21.0873 17.8423 21.0674 17.8453 21.0622 17.8453C21.0526 17.8453 21.0387 17.831 21.0286 17.8134L20.8489 17.4066C20.7738 17.2366 20.6655 17.1429 20.5442 17.1429C20.4252 17.1429 20.3167 17.2337 20.2387 17.3985L19.4613 19.0393C19.3854 19.1995 19.3822 19.3668 19.4524 19.5104C19.5225 19.654 19.6565 19.7543 19.8296 19.793L21.4272 20.149C21.4766 20.16 21.5239 20.1656 21.5676 20.1656C21.6924 20.1656 21.7912 20.1195 21.8457 20.0358C21.9091 19.9385 21.9067 19.8005 21.8389 19.6471L21.6458 19.2104C21.6021 19.1216 21.6648 19.01 21.6972 18.9805C23.5618 17.2838 24.6312 14.8698 24.6312 12.3576Z" fill="#F1B808"/>
<path d="M12.7689 5.21701C12.1302 4.96093 11.9455 4.80607 11.9455 4.52639C11.9455 4.30257 12.1151 4.04118 12.5929 4.04118C13.0156 4.04118 13.3397 4.20784 13.3426 4.20935C13.3767 4.22751 13.4149 4.23721 13.4528 4.23721C13.5453 4.23721 13.6272 4.18122 13.6611 4.09461L13.7772 3.79776C13.8176 3.68965 13.7564 3.59537 13.6781 3.56154C13.4178 3.44819 12.9093 3.3606 12.904 3.35968C12.8958 3.35831 12.8673 3.35221 12.8673 3.31884L12.8657 2.88831C12.8657 2.75863 12.7574 2.65308 12.6245 2.65308H12.4162C12.2834 2.65308 12.1751 2.75863 12.1751 2.88844L12.1757 3.34107C12.1757 3.37575 12.1381 3.39083 12.1244 3.3941C11.4824 3.54699 11.0811 4.01725 11.0811 4.61051C11.0811 5.35003 11.6924 5.68425 12.3524 5.93509C12.88 6.14219 13.0953 6.35225 13.0953 6.66038C13.0953 6.99559 12.7905 7.22977 12.3537 7.22977C11.9808 7.22977 11.4761 6.99343 11.4711 6.991C11.4388 6.97573 11.4046 6.96792 11.3694 6.96792C11.2734 6.96792 11.1897 7.02601 11.1562 7.11596L11.0454 7.41609C11.0059 7.5282 11.0667 7.6192 11.1443 7.65965C11.4542 7.82106 12.0541 7.91566 12.0807 7.91979C12.0879 7.92084 12.1244 7.93376 12.1244 7.96706V8.41779C12.1244 8.54753 12.2326 8.65302 12.3657 8.65302H12.5809C12.7139 8.65302 12.8222 8.54753 12.8222 8.41779V7.94352C12.8222 7.89914 12.8549 7.89527 12.8617 7.89363C13.5457 7.73996 13.967 7.23954 13.967 6.61121C13.967 5.9657 13.6086 5.54868 12.7689 5.21701Z" fill="#F1B808"/>
<path d="M12.5 0C9.37793 0 6.84711 2.53089 6.84711 5.65293C6.84711 8.7749 9.37793 11.306 12.5 11.306C15.622 11.306 18.153 8.77497 18.153 5.65293C18.153 2.53089 15.622 0 12.5 0ZM12.5 9.99576C10.1014 9.99576 8.15726 8.05138 8.15726 5.65293C8.15726 3.25447 10.1014 1.31015 12.5 1.31015C14.8985 1.31015 16.8427 3.25447 16.8427 5.65293C16.8427 8.05138 14.8985 9.99576 12.5 9.99576Z" fill="#F1B808"/>
<path d="M12.5001 13.694C9.37793 13.694 6.84711 16.2249 6.84711 19.3469C6.84711 22.4689 9.37793 25 12.5001 25C15.6221 25 18.153 22.469 18.153 19.3469C18.1529 16.2249 15.6221 13.694 12.5001 13.694ZM12.5001 23.6898C10.1015 23.6898 8.15726 21.7454 8.15726 19.3469C8.15726 16.9485 10.1015 15.0041 12.5001 15.0041C14.8985 15.0041 16.8427 16.9485 16.8427 19.3469C16.8427 21.7454 14.8985 23.6898 12.5001 23.6898Z" fill="#F1B808"/>
<path d="M14.1747 20.6484C14.0533 20.5096 13.8422 20.4955 13.7033 20.6171C13.396 20.8862 13.0668 21.0344 12.6577 21.0344C12.0821 21.0344 11.6387 20.7445 11.334 20.3031C11.3212 20.2845 11.3014 20.2464 11.367 20.2464H12.131C12.3155 20.2464 12.4651 20.0969 12.4651 19.9123C12.4651 19.7278 12.3156 19.5782 12.131 19.5782H11.1074C11.0521 19.5782 11.0463 19.5346 11.0442 19.5125C11.0387 19.458 11.0357 19.4028 11.0357 19.3469C11.0357 19.2805 11.0364 19.248 11.044 19.1836C11.0453 19.1719 11.0556 19.1157 11.1238 19.1157H12.2852C12.4697 19.1157 12.6193 18.9661 12.6193 18.7816C12.6193 18.5971 12.4698 18.4474 12.2852 18.4474H11.408C11.2932 18.4474 11.347 18.371 11.3745 18.3345C11.6827 17.9249 12.1068 17.6593 12.6577 17.6593C12.9547 17.6593 13.1811 17.7375 13.4363 17.8853C13.596 17.9777 13.8004 17.9233 13.8929 17.7636C13.9853 17.604 13.9309 17.3996 13.7713 17.3071C13.4144 17.1004 13.0723 16.9912 12.6577 16.9912C11.7244 16.9912 10.9819 17.5369 10.6009 18.326C10.5816 18.3659 10.5612 18.4474 10.4792 18.4474H10.0507C9.86619 18.4474 9.71658 18.597 9.71658 18.7816C9.71658 18.9661 9.86612 19.1157 10.0507 19.1157H10.3345C10.3891 19.1157 10.3751 19.1628 10.3741 19.1746C10.3686 19.2392 10.3676 19.281 10.3676 19.3469C10.3676 19.4069 10.37 19.4664 10.3744 19.5253C10.3758 19.543 10.3842 19.5783 10.3248 19.5783H9.89641C9.71192 19.5783 9.56232 19.7278 9.56232 19.9124C9.56232 20.0969 9.71186 20.2465 9.89641 20.2465H10.4928C10.5639 20.2465 10.5626 20.2847 10.571 20.3036C10.9384 21.1271 11.6992 21.7027 12.6577 21.7027C13.2288 21.7027 13.7142 21.4957 14.1435 21.1198C14.2823 20.9982 14.2962 20.7871 14.1747 20.6484Z" fill="#F1B808"/>
</svg>
