<svg width="75" height="49" viewBox="0 0 75 49" fill="none" xmlns="http://www.w3.org/2000/svg">
<g clip-path="url(#clip0_1_472)">
<path d="M38.8096 24.8242C38.869 24.8242 38.9172 24.7691 38.9172 24.7012C38.9172 24.6332 38.869 24.5781 38.8096 24.5781C38.7501 24.5781 38.7019 24.6332 38.7019 24.7012C38.7019 24.7691 38.7501 24.8242 38.8096 24.8242ZM38.7507 24.6676C38.7581 24.687 38.7815 24.7012 38.8096 24.7012C38.8377 24.7012 38.8611 24.687 38.8685 24.6676C38.8795 24.681 38.8865 24.6979 38.8865 24.7166C38.8865 24.759 38.852 24.7935 38.8096 24.7935C38.7671 24.7935 38.7327 24.759 38.7327 24.7166C38.7327 24.6979 38.7396 24.681 38.7507 24.6676Z" fill="#A6AAB4"/>
<path d="M38.9019 24.855H38.8711L38.8096 24.978L38.748 24.855H38.7173C38.6663 24.855 38.625 24.8963 38.625 24.9473V25.0396C38.625 25.0565 38.6388 25.0703 38.6558 25.0703H38.9634C38.9804 25.0703 38.9941 25.0565 38.9941 25.0396V24.9473C38.9941 24.8963 38.9528 24.855 38.9019 24.855Z" fill="#A6AAB4"/>
<path d="M38.9267 24.611C38.9344 24.5996 38.9442 24.5896 38.9561 24.5825C38.9647 24.6011 38.9823 24.6201 39.0066 24.6341C39.0384 24.6525 39.0721 24.657 39.0939 24.6482C39.0946 24.6526 39.0952 24.657 39.0952 24.6616C39.0952 24.7062 39.0636 24.7434 39.0216 24.752C39.0807 24.743 39.126 24.6925 39.126 24.6309C39.126 24.5629 39.0709 24.5078 39.003 24.5078C38.9555 24.5078 38.9147 24.535 38.8942 24.5744C38.9067 24.5847 38.9178 24.5969 38.9267 24.611Z" fill="#A6AAB4"/>
<path d="M39.0952 24.7847H39.0798C39.0798 24.8271 39.0454 24.8616 39.0029 24.8616C39.0002 24.8616 38.9976 24.8611 38.9949 24.8607C39.0161 24.8835 39.0293 24.9138 39.0293 24.9473V25H39.1567C39.1737 25 39.1875 24.9862 39.1875 24.9692V24.877C39.1875 24.826 39.1462 24.7847 39.0952 24.7847Z" fill="#A6AAB4"/>
<path d="M38.9062 26.0734C39.675 25.2508 40.1461 24.1469 40.1461 22.9352C40.1461 20.3992 38.0836 18.3367 35.5476 18.3367C33.0117 18.3367 30.9492 20.3992 30.9492 22.9352C30.9492 24.1516 31.425 25.2578 32.1984 26.0828C31.7062 26.3688 31.2492 26.7227 30.8344 27.1352C29.5734 28.3961 28.8773 30.0742 28.8773 31.8602C28.8773 32.943 29.1445 33.7117 29.6906 34.2062C30.5695 35.0008 31.8773 34.8648 33.389 34.7102C34.0828 34.6398 34.8 34.5648 35.557 34.5648C36.3141 34.5648 37.0312 34.6375 37.725 34.7102C38.3156 34.7711 38.8758 34.8273 39.3914 34.8273C40.1953 34.8273 40.8891 34.6891 41.4234 34.2039C41.9719 33.7094 42.2367 32.943 42.2367 31.8578C42.2367 30.0742 41.5406 28.3961 40.2797 27.1328C39.8672 26.7156 39.4031 26.3617 38.9062 26.0734ZM35.5476 19.8367C37.2562 19.8367 38.6461 21.2266 38.6461 22.9352C38.6461 24.6438 37.2562 26.0336 35.5476 26.0336C33.839 26.0336 32.4492 24.6438 32.4492 22.9352C32.4515 21.2266 33.8414 19.8367 35.5476 19.8367ZM40.4227 33.0906C40.0383 33.4375 38.9906 33.3297 37.882 33.2172C37.1836 33.1469 36.3937 33.0648 35.5617 33.0648C34.7297 33.0648 33.9398 33.1469 33.2414 33.2172C32.1328 33.3297 31.0851 33.4375 30.7008 33.0906C30.4898 32.8984 30.382 32.4859 30.382 31.8578C30.382 29.7109 31.6969 27.8641 33.5625 27.0789C34.1648 27.3695 34.8398 27.5313 35.5523 27.5313C36.3281 27.5313 37.0594 27.3367 37.7016 26.9969C37.6758 27.032 37.6476 27.0672 37.6172 27.1C39.4547 27.8969 40.7437 29.7297 40.7437 31.8555C40.7414 32.4836 40.6336 32.8984 40.4227 33.0906Z" fill="#A6AAB4"/>
<path d="M47.1281 23.9383C46.7109 23.5211 46.2469 23.1672 45.75 22.8765C46.5305 22.0422 47.0039 20.9172 46.9899 19.6844C46.9828 19.1453 46.8844 18.6297 46.7063 18.1492C46.7063 18.1468 46.7039 18.1445 46.7039 18.1398C46.6969 18.1234 46.6922 18.107 46.6852 18.0906C46.0289 16.3726 44.3695 15.1398 42.4289 15.1234C40.8188 15.1093 39.3961 15.925 38.5617 17.1718C38.2289 17.6711 38.5852 18.339 39.1852 18.339C39.4359 18.339 39.668 18.2148 39.8086 18.0062C39.9281 17.8281 40.0664 17.6617 40.2188 17.5117C40.2586 17.4883 40.2984 17.4601 40.3359 17.4273C40.8984 16.9281 41.6414 16.6281 42.4547 16.6445C43.7836 16.6703 44.9133 17.5422 45.3258 18.7422C45.4383 19.075 45.4945 19.4336 45.4852 19.8039C45.4453 21.3883 44.1984 22.7008 42.6164 22.8133C42.5414 22.8179 42.4664 22.8203 42.3938 22.8226C42.3445 22.8226 42.2953 22.8273 42.2484 22.8367C41.8992 22.8367 41.5945 23.0828 41.5242 23.4273C41.5242 23.432 41.5219 23.4367 41.5219 23.4414C41.4281 23.889 41.7586 24.3156 42.2156 24.3344C42.2742 24.3367 42.3328 24.3367 42.3938 24.3367C43.1133 24.3367 43.793 24.1703 44.4 23.875C46.2375 24.6719 47.5875 26.5351 47.5875 28.6609C47.5875 29.2867 47.4797 29.7015 47.2688 29.8937C46.8844 30.2406 45.8367 30.1328 44.7281 30.0203C44.5172 29.9992 44.0578 29.957 44.0484 29.9617C43.6406 29.9687 43.3125 30.3015 43.3125 30.7094C43.3125 31.1172 43.6383 31.4476 44.0414 31.457C44.0438 31.4594 44.4024 31.4945 44.5734 31.5133C45.1641 31.5742 45.7242 31.6305 46.2399 31.6305C47.0438 31.6305 47.7375 31.4922 48.2719 31.007C48.8203 30.5125 49.0852 29.7461 49.0852 28.6609C49.0852 26.8773 48.3891 25.1992 47.1281 23.9383Z" fill="#A6AAB4"/>
</g>
<defs>
<clipPath id="clip0_1_472">
<rect width="24" height="24" fill="white" transform="translate(27 13)"/>
</clipPath>
</defs>
</svg>
