<svg width="26" height="26" viewBox="0 0 26 26" fill="none" xmlns="http://www.w3.org/2000/svg">
<path d="M2.52777 9.79333L13 3.77722L23.4722 9.79333C23.6373 9.87968 23.8293 9.89891 24.0082 9.84701C24.1871 9.7951 24.339 9.67609 24.4323 9.51481C24.5255 9.35354 24.5528 9.16249 24.5085 8.98156C24.4641 8.80063 24.3516 8.64382 24.1944 8.54389L13 2.10889L1.80555 8.54389C1.71924 8.58904 1.64295 8.65118 1.58128 8.72657C1.51961 8.80197 1.47383 8.88906 1.44669 8.98261C1.41955 9.07616 1.41162 9.17423 1.42336 9.27092C1.43511 9.36762 1.46629 9.46094 1.51504 9.54527C1.56378 9.6296 1.62908 9.7032 1.70701 9.76164C1.78494 9.82008 1.87388 9.86215 1.96849 9.88532C2.0631 9.9085 2.16142 9.91229 2.25753 9.89648C2.35364 9.88067 2.44557 9.84559 2.52777 9.79333Z" fill="#A4A4A6"/>
<path d="M2.88889 18.7778C2.88889 18.9693 2.96498 19.153 3.10042 19.2885C3.23586 19.4239 3.41956 19.5 3.61111 19.5H22.3889C22.5804 19.5 22.7641 19.4239 22.8996 19.2885C23.035 19.153 23.1111 18.9693 23.1111 18.7778C23.1111 18.5862 23.035 18.4025 22.8996 18.2671C22.7641 18.1317 22.5804 18.0556 22.3889 18.0556H20.2222V12.7328H18.7778V18.0556H13.7222V12.7328H12.2778V18.0556H7.22222V12.7328H5.77777V18.0556H3.61111C3.41956 18.0556 3.23586 18.1317 3.10042 18.2671C2.96498 18.4025 2.88889 18.5862 2.88889 18.7778Z" fill="#A4A4A6"/>
<path d="M3.62555 10.1111H22.4033V11.5555H3.62555V10.1111Z" fill="#A4A4A6"/>
<path d="M23.8333 20.9445H2.16668C1.97513 20.9445 1.79143 21.0205 1.65599 21.156C1.52055 21.2914 1.44446 21.4751 1.44446 21.6667C1.44446 21.8582 1.52055 22.0419 1.65599 22.1774C1.79143 22.3128 1.97513 22.3889 2.16668 22.3889H23.8333C24.0249 22.3889 24.2086 22.3128 24.344 22.1774C24.4795 22.0419 24.5556 21.8582 24.5556 21.6667C24.5556 21.4751 24.4795 21.2914 24.344 21.156C24.2086 21.0205 24.0249 20.9445 23.8333 20.9445Z" fill="#A4A4A6"/>
<path d="M15.9972 8.36335H18.3156L13.4694 5.57558C13.3816 5.52487 13.282 5.49817 13.1806 5.49817C13.0791 5.49817 12.9795 5.52487 12.8917 5.57558L8.03833 8.36335H10.3567L13.1733 6.74558L15.9972 8.36335Z" fill="#A4A4A6"/>
</svg>
