<svg width="26" height="26" viewBox="0 0 26 26" fill="none" xmlns="http://www.w3.org/2000/svg">
<path d="M22.6992 11.7304C23.4838 11.7304 23.8113 10.7224 23.174 10.2578L13.4774 3.20425C13.3389 3.10279 13.1717 3.0481 13 3.0481C12.8284 3.0481 12.6612 3.10279 12.5227 3.20425L2.82599 10.2578C2.18869 10.7199 2.51623 11.7304 3.30334 11.7304H4.87502V21.2265H3.04689C2.93517 21.2265 2.84376 21.3179 2.84376 21.4297V22.75C2.84376 22.8617 2.93517 22.9531 3.04689 22.9531H22.9531C23.0649 22.9531 23.1563 22.8617 23.1563 22.75V21.4297C23.1563 21.3179 23.0649 21.2265 22.9531 21.2265H21.125V11.7304H22.6992ZM13 4.99429L19.8834 10.0013H6.11662L13 4.99429ZM6.70314 11.7304H9.67385V21.2265H6.70314V11.7304ZM11.502 11.7304H14.4727V21.2265H11.502V11.7304ZM19.2969 21.2265H16.3008V11.7304H19.2969V21.2265Z" fill="#A4A4A6"/>
</svg>
