<svg width="26" height="30" viewBox="0 0 26 30" fill="none" xmlns="http://www.w3.org/2000/svg">
<rect x="1" y="15" width="24" height="14" rx="3" stroke="white"/>
<line x1="4.5" y1="15" x2="9.5" y2="15" stroke="white" stroke-linecap="round"/>
<line x1="16.5" y1="15" x2="21.5" y2="15" stroke="white" stroke-linecap="round"/>
<line x1="4.5" y1="15" x2="21.8" y2="15" stroke="#F2B807" stroke-linecap="round"/>
<path d="M13 15L13 8" stroke="white" stroke-linecap="round"/>
<path d="M11 9L12.9293 7.07071C12.9683 7.03166 13.0317 7.03166 13.0707 7.07071L15 9" stroke="white" stroke-linecap="round"/>
<circle cx="5" cy="22" r="1" fill="white"/>
<circle cx="21" cy="22" r="1" fill="white"/>
<path d="M23.613 13.35C23.1657 15.7761 21.8985 17.908 20.1185 19.4343C18.3272 20.9702 16.0212 21.8948 13.5056 21.8948C11.1416 21.8948 8.96102 21.0791 7.22217 19.7075C5.44401 18.3073 4.13005 16.3263 3.54793 14.0415L4.83195 13.7015C5.33732 15.6901 6.48283 17.4152 8.03076 18.6358C9.54313 19.8279 11.4411 20.5366 13.5037 20.5366C15.6993 20.5366 17.7096 19.7324 19.265 18.399C20.753 17.1229 21.8293 15.3597 22.256 13.3481H20.884L22.9411 10.7902L24.9981 13.3481H23.613V13.35ZM3.39632 9.44344C3.83993 7.03837 5.08838 4.92366 6.84221 3.39923C8.63908 1.83851 10.9657 0.896729 13.5037 0.896729C15.7367 0.896729 17.8031 1.62265 19.4896 2.8567C21.221 4.12324 22.5499 5.92466 23.2481 8.02599L22.6191 8.24377L21.9902 8.46154C21.9734 8.40805 21.9547 8.35457 21.936 8.30299C21.3164 6.5436 20.1803 5.03445 18.7166 3.96277C17.2491 2.88918 15.4504 2.25687 13.5056 2.25687C11.2895 2.25687 9.26237 3.07448 7.70134 4.4308C6.23389 5.70497 5.17635 7.4529 4.75147 9.44344H6.11597L4.05705 12.0013L2 9.44344H3.39632Z" fill="white"/>
</svg>
