<svg width="224" height="171" viewBox="0 0 224 171" fill="none" xmlns="http://www.w3.org/2000/svg">
<g clip-path="url(#clip0_1_414)">
<path d="M89.6336 35.4615H88.8164V13.0001C88.8164 11.2929 88.4813 9.6024 87.8302 8.02516C87.1791 6.44792 86.2247 5.0148 85.0216 3.80764C83.8185 2.60047 82.3902 1.64289 80.8183 0.989575C79.2463 0.33626 77.5615 1.44647e-06 75.8601 0H28.4324C24.9961 -6.57274e-06 21.7006 1.36963 19.2708 3.80761C16.841 6.24558 15.476 9.55219 15.476 13V136.225C15.476 137.932 15.8111 139.623 16.4622 141.2C17.1133 142.777 18.0677 144.21 19.2708 145.417C20.4739 146.625 21.9022 147.582 23.4741 148.236C25.0461 148.889 26.7309 149.225 28.4323 149.225H75.86C79.2962 149.225 82.5918 147.855 85.0216 145.418C87.4514 142.98 88.8164 139.673 88.8164 136.225V51.4499H89.6336V35.4615Z" fill="#3F3D56"/>
<path d="M76.3828 3.3822H70.1919C70.4766 4.08255 70.5853 4.84241 70.5084 5.59483C70.4315 6.34725 70.1713 7.06915 69.7508 7.69692C69.3303 8.3247 68.7625 8.83908 68.0972 9.19477C67.4319 9.55045 66.6897 9.73652 65.9358 9.73657H38.7651C38.0113 9.73652 37.269 9.55045 36.6038 9.19477C35.9385 8.83909 35.3706 8.3247 34.9501 7.69693C34.5296 7.06915 34.2695 6.34726 34.1925 5.59484C34.1156 4.84241 34.2243 4.08255 34.509 3.3822H28.7267C27.4561 3.3822 26.1979 3.63331 25.024 4.1212C23.8501 4.60909 22.7834 5.32419 21.885 6.22569C20.9865 7.12719 20.2738 8.19742 19.7875 9.37529C19.3013 10.5532 19.051 11.8156 19.051 13.0905V136.135C19.051 137.41 19.3013 138.672 19.7875 139.85C20.2738 141.028 20.9865 142.098 21.885 143C22.7834 143.901 23.8501 144.616 25.024 145.104C26.1979 145.592 27.4561 145.843 28.7267 145.843H76.3828C77.6534 145.843 78.9116 145.592 80.0855 145.104C81.2594 144.616 82.3261 143.901 83.2245 143C84.123 142.098 84.8357 141.028 85.322 139.85C85.8082 138.672 86.0585 137.41 86.0585 136.135V13.0905C86.0585 11.8156 85.8082 10.5532 85.322 9.37529C84.8357 8.19742 84.123 7.12719 83.2245 6.22569C82.3261 5.32419 81.2594 4.60909 80.0855 4.1212C78.9116 3.63331 77.6534 3.3822 76.3828 3.3822Z" fill="white"/>
<path d="M104.835 149.246H0.274437C0.201652 149.246 0.131848 149.217 0.0803806 149.166C0.0289136 149.114 0 149.044 0 148.971C0 148.898 0.0289136 148.828 0.0803806 148.776C0.131848 148.725 0.201652 148.696 0.274437 148.696H104.835C104.908 148.696 104.978 148.725 105.029 148.776C105.081 148.828 105.109 148.898 105.109 148.971C105.109 149.044 105.081 149.114 105.029 149.166C104.978 149.217 104.908 149.246 104.835 149.246Z" fill="#CBCBCB"/>
<path d="M52.5547 95.1871C65.354 95.1871 75.7299 84.7763 75.7299 71.9338C75.7299 59.0914 65.354 48.6805 52.5547 48.6805C39.7554 48.6805 29.3795 59.0914 29.3795 71.9338C29.3795 84.7763 39.7554 95.1871 52.5547 95.1871Z" fill="#F2B807"/>
<path d="M50.2582 80.8044C49.7369 80.8053 49.2293 80.636 48.8122 80.3222L48.7863 80.3027L43.3399 76.1223C43.0876 75.9283 42.8759 75.6863 42.7169 75.4102C42.5578 75.134 42.4546 74.8292 42.4129 74.513C42.3713 74.1968 42.3922 73.8755 42.4743 73.5674C42.5564 73.2594 42.6982 72.9705 42.8916 72.7174C43.085 72.4643 43.3262 72.2519 43.6014 72.0923C43.8766 71.9328 44.1804 71.8291 44.4955 71.7874C44.8106 71.7456 45.1308 71.7665 45.4379 71.8489C45.745 71.9313 46.0328 72.0736 46.2851 72.2677L49.8129 74.9821L58.1492 64.0697C58.3425 63.8167 58.5836 63.6044 58.8587 63.4449C59.1338 63.2854 59.4375 63.1818 59.7525 63.14C60.0674 63.0983 60.3875 63.1192 60.6945 63.2016C61.0014 63.284 61.2891 63.4262 61.5413 63.6202L61.542 63.6207L61.4902 63.6928L61.5434 63.6207C62.0521 64.013 62.3849 64.5917 62.4688 65.2299C62.5527 65.8681 62.3808 66.5136 61.9909 67.0248L52.1855 79.8544C51.9587 80.1501 51.667 80.3893 51.3331 80.5535C50.9993 80.7177 50.6322 80.8026 50.2604 80.8015L50.2582 80.8044Z" fill="white"/>
<path d="M190.527 151.532C190.809 151.074 191.141 150.65 191.516 150.267C191.671 150.105 191.835 149.953 192.003 149.806C193.028 148.89 194.277 148.266 195.622 147.996C196.967 147.725 198.36 147.82 199.657 148.268C200.953 148.717 202.108 149.505 203.001 150.549C203.894 151.594 204.493 152.859 204.738 154.213C205.87 150.013 202.923 145.877 199.961 142.699C196.997 139.522 193.609 136.038 193.626 131.685C193.635 129.263 194.816 127.102 196.598 125.5C196.653 125.452 196.708 125.403 196.765 125.356C198.919 123.503 201.692 122.534 204.528 122.642C209.797 122.925 214.397 126.478 217.592 130.693C222.735 137.474 224.988 146.993 221.388 154.713C218.222 161.502 211.468 165.534 204.575 168.775C203.612 169.228 202.652 169.667 201.693 170.092C201.687 170.094 201.68 170.099 201.673 170.1C201.627 170.121 201.581 170.141 201.538 170.162C201.34 170.25 201.142 170.337 200.946 170.424L201.037 170.483L201.32 170.667C201.222 170.608 201.125 170.55 201.026 170.49C200.997 170.472 200.966 170.455 200.937 170.437C197.552 168.399 194.119 166.243 191.78 163.061C189.355 159.757 188.38 155.025 190.527 151.532Z" fill="#F1F1F1"/>
<path d="M213.114 143.859C213.863 145.57 214.36 147.382 214.589 149.237C214.769 150.891 214.701 152.563 214.388 154.197C213.716 157.555 212.25 160.702 210.113 163.373C208.501 165.401 206.64 167.216 204.575 168.775C203.612 169.228 202.652 169.667 201.693 170.093C201.687 170.094 201.68 170.099 201.673 170.1C201.627 170.121 201.581 170.141 201.538 170.162C201.34 170.25 201.142 170.337 200.946 170.424L201.037 170.483L201.32 170.668C201.222 170.608 201.125 170.55 201.026 170.49C200.997 170.472 200.966 170.455 200.937 170.437C201.682 167.822 201.792 165.066 201.257 162.4C200.721 159.734 199.557 157.236 197.861 155.114C196.157 153.019 193.983 151.358 191.516 150.267C191.671 150.105 191.835 149.953 192.003 149.806C192.953 150.243 193.863 150.764 194.721 151.363C197.791 153.492 200.097 156.557 201.296 160.103C202.367 163.32 202.501 166.777 201.682 170.068C201.852 169.956 202.022 169.842 202.188 169.728C205.342 167.594 208.249 165.031 210.438 161.888C212.326 159.232 213.535 156.151 213.957 152.916C214.376 149.382 213.495 145.907 211.923 142.753C210.186 139.38 207.998 136.26 205.419 133.482C202.829 130.626 199.901 128.1 196.699 125.958C196.627 125.91 196.576 125.835 196.557 125.749C196.539 125.664 196.553 125.575 196.598 125.5C196.633 125.432 196.692 125.381 196.764 125.356C196.801 125.347 196.839 125.346 196.876 125.354C196.913 125.361 196.948 125.377 196.978 125.4C197.374 125.665 197.766 125.931 198.153 126.206C201.377 128.497 204.305 131.181 206.87 134.196C209.349 137.103 211.604 140.332 213.114 143.859Z" fill="white"/>
<path d="M144.091 10.7971C146.809 10.7971 149.013 8.58616 149.013 5.85877C149.013 3.13139 146.809 0.92041 144.091 0.92041C141.373 0.92041 139.169 3.13139 139.169 5.85877C139.169 8.58616 141.373 10.7971 144.091 10.7971Z" fill="#F1F1F1"/>
<path d="M205.291 76.8841C206.948 76.8841 208.291 75.5361 208.291 73.8733C208.291 72.2104 206.948 70.8624 205.291 70.8624C203.633 70.8624 202.29 72.2104 202.29 73.8733C202.29 75.5361 203.633 76.8841 205.291 76.8841Z" fill="#F1F1F1"/>
<path d="M117.471 85.1449C119.128 85.1449 120.471 83.797 120.471 82.1341C120.471 80.4713 119.128 79.1233 117.471 79.1233C115.813 79.1233 114.47 80.4713 114.47 82.1341C114.47 83.797 115.813 85.1449 117.471 85.1449Z" fill="#F1F1F1"/>
<path d="M119.165 171H223.726C223.798 171 223.868 170.971 223.92 170.919C223.971 170.868 224 170.798 224 170.725C224 170.652 223.971 170.582 223.92 170.53C223.868 170.478 223.798 170.449 223.726 170.449H119.165C119.092 170.449 119.022 170.478 118.971 170.53C118.919 170.582 118.891 170.652 118.891 170.725C118.891 170.798 118.919 170.868 118.971 170.919C119.022 170.971 119.092 171 119.165 171Z" fill="#CBCBCB"/>
<path d="M212.187 26.6097C212.324 25.6316 212.099 24.637 211.554 23.8143C211.009 22.9916 210.183 22.398 209.231 22.1459C208.279 21.8939 207.268 22.0009 206.39 22.4467C205.512 22.8925 204.827 23.6461 204.465 24.5648L195.98 34.3248L198.47 41.3016L207.003 29.8974C207.56 30.0764 208.149 30.1307 208.729 30.0564C209.309 29.9822 209.865 29.7813 210.36 29.4679C210.854 29.1544 211.274 28.736 211.589 28.2422C211.905 27.7484 212.109 27.1911 212.187 26.6097Z" fill="#FFB7B7"/>
<path d="M177.016 64.5859L205.181 34.4258L201.382 28.3656L166.055 58.3427L177.016 64.5859Z" fill="#3F3D56"/>
<path d="M170.73 46.2609C176.186 46.2609 180.609 41.8227 180.609 36.3479C180.609 30.873 176.186 26.4348 170.73 26.4348C165.273 26.4348 160.85 30.873 160.85 36.3479C160.85 41.8227 165.273 46.2609 170.73 46.2609Z" fill="#2F2E41"/>
<path d="M171.524 30.7479C173.65 28.5847 176.222 26.9155 179.061 25.8576C180.883 25.1804 182.866 24.762 184.77 25.1466C186.675 25.5312 188.476 26.8533 189.008 28.7284C189.442 30.2618 188.994 31.9127 188.319 33.3561C187.645 34.7994 186.745 36.1379 186.199 37.6351C185.643 39.1629 185.476 40.8058 185.713 42.4149C185.949 44.024 186.583 45.5482 187.556 46.8492C188.529 48.1502 189.81 49.1867 191.284 49.8648C192.757 50.5429 194.376 50.841 195.994 50.732C194.122 50.9838 192.397 51.8662 190.568 52.336C188.739 52.8057 186.58 52.7738 185.22 51.4589C183.782 50.0676 183.753 47.8056 183.823 45.8022C183.926 42.8242 184.029 39.8462 184.133 36.8681C184.186 35.3494 184.231 33.782 183.685 32.3644C183.139 30.9469 181.841 29.7056 180.327 29.7185C179.179 29.7283 178.163 30.426 177.243 31.114C176.322 31.8021 175.348 32.5362 174.204 32.6386C173.061 32.7409 171.756 31.8919 171.841 30.7434L171.524 30.7479Z" fill="#2F2E41"/>
<path d="M133.206 102.909C132.257 103.174 131.245 103.08 130.361 102.645C129.477 102.211 128.782 101.466 128.409 100.552C128.035 99.6384 128.009 98.6188 128.335 97.6867C128.661 96.7547 129.316 95.9748 130.176 95.4951L138.711 85.7793L145.93 87.3442L135.777 97.3228C136.026 97.8533 136.157 98.4323 136.16 99.019C136.162 99.6056 136.036 100.186 135.791 100.718C135.546 101.251 135.187 101.723 134.741 102.102C134.294 102.48 133.77 102.756 133.206 102.909H133.206Z" fill="#FFB7B7"/>
<path d="M161.286 68.1261L140.013 94.9188L133.529 91.9317L158.533 52.8729L161.286 68.1261Z" fill="#3F3D56"/>
<path d="M144.312 149.029L139.242 148.949L139.852 166.288H144.312L144.312 149.029Z" fill="#FFB7B7"/>
<path d="M145.449 164.827L136.667 164.827H136.666C135.182 164.827 133.759 165.418 132.709 166.471C131.659 167.524 131.07 168.953 131.07 170.442V170.625L145.449 170.625L145.449 164.827Z" fill="#2F2E41"/>
<path d="M177.881 144.431L172.342 147.998L183.421 161.371L187.173 158.954L177.881 144.431Z" fill="#FFB7B7"/>
<path d="M187.344 157.108L179.954 161.868L179.953 161.869C178.704 162.673 177.825 163.943 177.509 165.398C177.193 166.853 177.466 168.375 178.268 169.628L178.366 169.782L190.466 161.987L187.344 157.108Z" fill="#2F2E41"/>
<path d="M179.854 91.4864C179.854 91.4864 167.548 50.4774 163.593 49.9232C159.639 49.369 153.267 60.4456 153.267 60.4456C145.006 71.0218 136.487 105.28 136.487 105.28C136.487 105.28 150.688 106.172 161.069 111.714C171.45 117.256 183.701 111.433 183.701 111.433L179.854 91.4864Z" fill="#3F3D56"/>
<path opacity="0.1" d="M179.854 91.4864C179.854 91.4864 167.548 50.4774 163.593 49.9232C159.639 49.3691 154.885 60.5581 154.885 60.5581C150.769 77.6305 136.487 105.28 136.487 105.28C136.487 105.28 150.688 106.172 161.069 111.714C171.45 117.256 183.701 111.433 183.701 111.433L179.854 91.4864Z" fill="black"/>
<path d="M169.758 79.2167V99.8235L172.175 129.674L184.25 152.254L178.487 156.384L162.021 134.906L155.508 113.579L145.28 160.79L137.596 160.239L142.932 94.7824L153.059 76.3579L169.758 79.2167Z" fill="#2F2E41"/>
<path d="M157.351 59.2854C153.509 63.1405 157.076 67.2709 157.076 67.2709L152.685 77.184L169.975 81.8651L176.017 54.7755L171.9 50.3697C163.667 50.0943 163.663 49.9231 163.663 49.9231C162.22 51.3395 157.351 59.2854 157.351 59.2854Z" fill="#F2B807"/>
<path d="M176.713 51.969C175.928 51.3874 175.035 50.9679 174.088 50.7348C173.14 50.5017 172.155 50.4597 171.191 50.6111C170.226 50.7626 169.302 51.1045 168.47 51.6171C167.638 52.1296 166.916 52.8027 166.346 53.5972C161.999 59.6696 157.98 69.4749 163.518 81.7039C172.409 101.34 180.147 111.392 183.292 111.391C183.43 111.392 183.566 111.371 183.697 111.327C185.633 110.668 188.432 107.381 188.939 104.484C189.121 103.447 189.077 102.002 187.841 101.011C184.291 98.1618 177.918 89.2909 175.93 77.6149C174.832 71.1632 176.962 65.2864 178.943 61.4925C179.78 59.9227 180.025 58.1029 179.633 56.3667C179.241 54.6305 178.238 53.0943 176.809 52.0396L176.713 51.969Z" fill="#3F3D56"/>
<path d="M171.238 45.287C174.762 43.3539 176.057 38.9202 174.131 35.3839C172.204 31.8477 167.785 30.5481 164.261 32.4812C160.737 34.4143 159.441 38.848 161.368 42.3842C163.294 45.9205 167.713 47.2201 171.238 45.287Z" fill="#FFB7B7"/>
<path d="M157.521 38.3324H168.023L168.131 36.8196L168.669 38.3324H170.286L170.5 35.3341L171.567 38.3324H174.696V38.1839C174.693 36.0965 173.866 34.0953 172.395 32.6193C170.924 31.1433 168.929 30.313 166.849 30.3107H165.368C163.288 30.313 161.293 31.1433 159.822 32.6193C158.351 34.0953 157.524 36.0965 157.521 38.1839V38.3324Z" fill="#2F2E41"/>
<path d="M173.109 43.7701L177.591 42.311V31.3914H169.126L169.335 31.6013C172.251 34.5231 175.494 44.8895 173.109 43.7701Z" fill="#2F2E41"/>
</g>
<defs>
<clipPath id="clip0_1_414">
<rect width="224" height="171" fill="white"/>
</clipPath>
</defs>
</svg>
